The action takes place in the Crimea, the southern part of the former Soviet Union. The characters are all people hostile to society; they’ve got their own reasons for being so, their own lack of understanding. This hostility obliges them to flee, to run from the law, from themselves. During this voyage from which there is no return, feelings follow their own path, oscillating from joy to despair, from hate to love. The rope binding these fates together is already stretched tight and now difficult to break.

   General
      Complete name : Seven Invisible Men.avi
      Format : AVI
      Format/Info : Audio Video Interleave
      File size : 1.37 GiB
      Duration : 1h 51mn
      Overall bit rate : 1 756 Kbps
      Writing application : VirtualDubMod 1.5.10.2 (build 2540/release)
      Writing library : VirtualDubMod build 2540/release
   Video #0
      ID : 0
      Format : MPEG-4 Visual
      Format settings, BVOP : Yes
      Format settings, QPel : No
      Format settings, GMC : No warppoints
      Format settings, Matrix : Default (H.263)
      Muxing mode : Packed bitstream
      Codec ID : DX50
      Codec ID/Hint : DivX 5
      Duration : 1h 51mn
      Bit rate : 1 634 Kbps
      Width : 672 pixels
      Height : 384 pixels
      Display aspect ratio : 16:9
      Frame rate : 25.000 fps
      Resolution : 24 bits
      Colorimetry : 4:2:0
      Scan type : Progressive
      Bits/(Pixel*Frame) : 0.253
      Stream size : 1.27 GiB (93%)
      Writing library : DivX 6.4.0 (UTC 2006-10-03)
   Audio #1
      ID : 1
      Format : MPEG Audio
      Format version : Version 1
      Format profile : Layer 3
      Codec ID : 55
      Codec ID/Hint : MP3
      Duration : 1h 51mn
      Bit rate mode : Constant
      Bit rate : 112 Kbps
      Channel(s) : 2 channels
      Sampling rate : 44.1 KHz
      Resolution : 16 bits
      Stream size : 89.2 MiB (6%)
      Alignment : Split accross interleaves
      Interleave, duration : 40 ms (1.00 video frame)
      Interleave, preload duration : 500 ms
      Writing library : LAME3.98 
      Encoding settings : -m j -V 4 -q 3 -lowpass 15.6 -b 112
      Language : Russian
 
http://www.imdb.com/title/tt0471911/

Russian audio; English, Spanish and Portuguese subtitles

Sharunas Bartas - Seven Invisible Men (2005)